<mxfile host="app.diagrams.net" modified="2024-05-09T07:29:57.709Z" agent="Mozilla/5.0 (X11; Linux x86_64) AppleWebKit/537.36 (KHTML, like Gecko) Chrome/123.0.0.0 Safari/537.36 Edg/123.0.0.0" version="24.3.1" etag="ZwDolC_Sd_AjgsYNmOaR" type="github">
  <diagram name="第 1 页" id="tTiIDFjKbAXb4NF2a-og">
    <mxGraphModel>
      <root>
        <mxCell id="0" />
        <mxCell id="1" parent="0" />
      </root>
    </mxGraphModel>
  </diagram>
</mxfile>
